{
    "asset" : {
        "generator" : "Khronos glTF Blender I/O v1.5.17",
        "version" : "2.0"
    },
    "scene" : 0,
    "scenes" : [
        {
            "name" : "Scene",
            "nodes" : [
                0
            ]
        }
    ],
    "nodes" : [
        {
            "mesh" : 0,
            "name" : "Cube",
            "scale" : [
                5,
                5,
                10
            ]
        }
    ],
    "materials" : [
        {
            "doubleSided" : true,
            "name" : "Material",
            "pbrMetallicRoughness" : {}
        }
    ],
    "meshes" : [
        {
            "name" : "Cube",
            "primitives" : [
                {
                    "attributes" : {
                        "POSITION" : 0,
                        "NORMAL" : 1,
                        "TEXCOORD_0" : 2
                    },
                    "indices" : 3,
                    "material" : 0
                }
            ]
        }
    ],
    "accessors" : [
        {
            "bufferView" : 0,
            "componentType" : 5126,
            "count" : 62,
            "max" : [
                2.009999990463257,
                1.9915239810943604,
                0.5049999952316284
            ],
            "min" : [
                -2,
                -2.371763229370117,
                -0.5
            ],
            "type" : "VEC3"
        },
        {
            "bufferView" : 1,
            "componentType" : 5126,
            "count" : 62,
            "type" : "VEC3"
        },
        {
            "bufferView" : 2,
            "componentType" : 5126,
            "count" : 62,
            "type" : "VEC2"
        },
        {
            "bufferView" : 3,
            "componentType" : 5123,
            "count" : 90,
            "type" : "SCALAR"
        }
    ],
    "bufferViews" : [
        {
            "buffer" : 0,
            "byteLength" : 744,
            "byteOffset" : 0
        },
        {
            "buffer" : 0,
            "byteLength" : 744,
            "byteOffset" : 744
        },
        {
            "buffer" : 0,
            "byteLength" : 496,
            "byteOffset" : 1488
        },
        {
            "buffer" : 0,
            "byteLength" : 180,
            "byteOffset" : 1984
        }
    ],
    "buffers" : [
        {
            "byteLength" : 2164,
            "uri" : "data:application/octet-stream;base64,"
        }
    ]
}
