{
    "asset" : {
        "generator" : "Khronos glTF Blender I/O v1.5.17",
        "version" : "2.0"
    },
    "scene" : 0,
    "scenes" : [
        {
            "name" : "Scene",
            "nodes" : [
                0,
                1,
                2,
                3,
                4,
                5,
                6,
                7
            ]
        }
    ],
    "nodes" : [
        {
            "name" : "Light",
            "rotation" : [
                0.16907575726509094,
                0.7558803558349609,
                -0.27217137813568115,
                0.570947527885437
            ],
            "translation" : [
                4.076245307922363,
                37.90826416015625,
                -1.0054539442062378
            ]
        },
        {
            "name" : "Camera",
            "rotation" : [
                0.483536034822464,
                0.33687159419059753,
                -0.20870360732078552,
                0.7804827094078064
            ],
            "translation" : [
                44.446685791015625,
                24.010997772216797,
                35.28257751464844
            ]
        },
        {
            "mesh" : 0,
            "name" : "Cube"
        },
        {
            "mesh" : 1,
            "name" : "Cube.009",
            "rotation" : [
                0,
                -0.6442208886146545,
                0,
                0.7648395299911499
            ],
            "scale" : [
                0.10000002384185791,
                0.10000002384185791,
                0.10000002384185791
            ],
            "translation" : [
                -0.7609063386917114,
                16.905927658081055,
                -4.896017074584961
            ]
        },
        {
            "mesh" : 2,
            "name" : "Cube.001",
            "rotation" : [
                0,
                -0.2628370523452759,
                0,
                0.9648402333259583
            ],
            "scale" : [
                0.10000002384185791,
                0.10000002384185791,
                0.10000002384185791
            ],
            "translation" : [
                -0.013130724430084229,
                16.7343807220459,
                -3.923126697540283
            ]
        },
        {
            "mesh" : 3,
            "name" : "Cube.002",
            "rotation" : [
                0,
                -0.8552598357200623,
                0,
                0.5181994438171387
            ],
            "scale" : [
                0.10000002384185791,
                0.10000002384185791,
                0.10000002384185791
            ],
            "translation" : [
                9.297144889831543,
                7.961536884307861,
                -3.923126697540283
            ]
        },
        {
            "mesh" : 4,
            "name" : "Cube.003",
            "rotation" : [
                0,
                -0.5824919939041138,
                0,
                0.8128364682197571
            ],
            "scale" : [
                0.10000002384185791,
                0.10000002384185791,
                0.10000002384185791
            ],
            "translation" : [
                8.759727478027344,
                7.961536884307861,
                -2.6714189052581787
            ]
        },
        {
            "mesh" : 5,
            "name" : "Cube.004",
            "rotation" : [
                0,
                -0.8655862808227539,
                0,
                0.5007598400115967
            ],
            "scale" : [
                0.10000002384185791,
                0.10000002384185791,
                0.10000002384185791
            ],
            "translation" : [
                7.7079362869262695,
                8.007726669311523,
                -1.4887417554855347
            ]
        }
    ],
    "materials" : [
        {
            "doubleSided" : true,
            "name" : "Material.001",
            "pbrMetallicRoughness" : {}
        },
        {
            "doubleSided" : true,
            "name" : "Material.003",
            "pbrMetallicRoughness" : {}
        }
    ],
    "meshes" : [
        {
            "name" : "Cube.001",
            "primitives" : [
                {
                    "attributes" : {
                        "POSITION" : 0,
                        "NORMAL" : 1,
                        "TEXCOORD_0" : 2,
                        "COLOR_0" : 3
                    },
                    "indices" : 4,
                    "material" : 0
                }
            ]
        },
        {
            "name" : "Cube.009",
            "primitives" : [
                {
                    "attributes" : {
                        "POSITION" : 5,
                        "NORMAL" : 6,
                        "TEXCOORD_0" : 7,
                        "COLOR_0" : 8
                    },
                    "indices" : 9,
                    "material" : 1
                }
            ]
        },
        {
            "name" : "Cube.002",
            "primitives" : [
                {
                    "attributes" : {
                        "POSITION" : 10,
                        "NORMAL" : 11,
                        "TEXCOORD_0" : 12,
                        "COLOR_0" : 13
                    },
                    "indices" : 9,
                    "material" : 1
                }
            ]
        },
        {
            "name" : "Cube.003",
            "primitives" : [
                {
                    "attributes" : {
                        "POSITION" : 14,
                        "NORMAL" : 15,
                        "TEXCOORD_0" : 16,
                        "COLOR_0" : 17
                    },
                    "indices" : 9,
                    "material" : 1
                }
            ]
        },
        {
            "name" : "Cube.004",
            "primitives" : [
                {
                    "attributes" : {
                        "POSITION" : 18,
                        "NORMAL" : 19,
                        "TEXCOORD_0" : 20,
                        "COLOR_0" : 21
                    },
                    "indices" : 9,
                    "material" : 1
                }
            ]
        },
        {
            "name" : "Cube.005",
            "primitives" : [
                {
                    "attributes" : {
                        "POSITION" : 22,
                        "NORMAL" : 23,
                        "TEXCOORD_0" : 24,
                        "COLOR_0" : 25
                    },
                    "indices" : 9,
                    "material" : 1
                }
            ]
        }
    ],
    "accessors" : [
        {
            "bufferView" : 0,
            "componentType" : 5126,
            "count" : 29254,
            "max" : [
                42.254913330078125,
                17.436124801635742,
                42.36369323730469
            ],
            "min" : [
                -21.726316452026367,
                -3.770340919494629,
                -34.5580940246582
            ],
            "type" : "VEC3"
        },
        {
            "bufferView" : 1,
            "componentType" : 5126,
            "count" : 29254,
            "type" : "VEC3"
        },
        {
            "bufferView" : 2,
            "componentType" : 5126,
            "count" : 29254,
            "type" : "VEC2"
        },
        {
            "bufferView" : 3,
            "componentType" : 5123,
            "count" : 29254,
            "normalized" : true,
            "type" : "VEC4"
        },
        {
            "bufferView" : 4,
            "componentType" : 5123,
            "count" : 165888,
            "type" : "SCALAR"
        },
        {
            "bufferView" : 5,
            "componentType" : 5126,
            "count" : 132,
            "max" : [
                2.1064133644104004,
                2.3935694694519043,
                1.619416356086731
            ],
            "min" : [
                -2.1343328952789307,
                -0.7846955060958862,
                -1.774733543395996
            ],
            "type" : "VEC3"
        },
        {
            "bufferView" : 6,
            "componentType" : 5126,
            "count" : 132,
            "type" : "VEC3"
        },
        {
            "bufferView" : 7,
            "componentType" : 5126,
            "count" : 132,
            "type" : "VEC2"
        },
        {
            "bufferView" : 8,
            "componentType" : 5123,
            "count" : 132,
            "normalized" : true,
            "type" : "VEC4"
        },
        {
            "bufferView" : 9,
            "componentType" : 5123,
            "count" : 492,
            "type" : "SCALAR"
        },
        {
            "bufferView" : 10,
            "componentType" : 5126,
            "count" : 132,
            "max" : [
                2.1064133644104004,
                2.3935694694519043,
                1.619416356086731
            ],
            "min" : [
                -2.1343328952789307,
                -0.7846955060958862,
                -1.774733543395996
            ],
            "type" : "VEC3"
        },
        {
            "bufferView" : 11,
            "componentType" : 5126,
            "count" : 132,
            "type" : "VEC3"
        },
        {
            "bufferView" : 12,
            "componentType" : 5126,
            "count" : 132,
            "type" : "VEC2"
        },
        {
            "bufferView" : 13,
            "componentType" : 5123,
            "count" : 132,
            "normalized" : true,
            "type" : "VEC4"
        },
        {
            "bufferView" : 14,
            "componentType" : 5126,
            "count" : 132,
            "max" : [
                2.1064133644104004,
                2.3935694694519043,
                1.619416356086731
            ],
            "min" : [
                -2.1343328952789307,
                -0.7846955060958862,
                -1.774733543395996
            ],
            "type" : "VEC3"
        },
        {
            "bufferView" : 15,
            "componentType" : 5126,
            "count" : 132,
            "type" : "VEC3"
        },
        {
            "bufferView" : 16,
            "componentType" : 5126,
            "count" : 132,
            "type" : "VEC2"
        },
        {
            "bufferView" : 17,
            "componentType" : 5123,
            "count" : 132,
            "normalized" : true,
            "type" : "VEC4"
        },
        {
            "bufferView" : 18,
            "componentType" : 5126,
            "count" : 132,
            "max" : [
                2.1064133644104004,
                2.3935694694519043,
                1.619416356086731
            ],
            "min" : [
                -2.1343328952789307,
                -0.7846955060958862,
                -1.774733543395996
            ],
            "type" : "VEC3"
        },
        {
            "bufferView" : 19,
            "componentType" : 5126,
            "count" : 132,
            "type" : "VEC3"
        },
        {
            "bufferView" : 20,
            "componentType" : 5126,
            "count" : 132,
            "type" : "VEC2"
        },
        {
            "bufferView" : 21,
            "componentType" : 5123,
            "count" : 132,
            "normalized" : true,
            "type" : "VEC4"
        },
        {
            "bufferView" : 22,
            "componentType" : 5126,
            "count" : 132,
            "max" : [
                2.1064133644104004,
                2.3935694694519043,
                1.619416356086731
            ],
            "min" : [
                -2.1343328952789307,
                -0.7846955060958862,
                -1.774733543395996
            ],
            "type" : "VEC3"
        },
        {
            "bufferView" : 23,
            "componentType" : 5126,
            "count" : 132,
            "type" : "VEC3"
        },
        {
            "bufferView" : 24,
            "componentType" : 5126,
            "count" : 132,
            "type" : "VEC2"
        },
        {
            "bufferView" : 25,
            "componentType" : 5123,
            "count" : 132,
            "normalized" : true,
            "type" : "VEC4"
        }
    ],
    "bufferViews" : [
        {
            "buffer" : 0,
            "byteLength" : 351048,
            "byteOffset" : 0
        },
        {
            "buffer" : 0,
            "byteLength" : 351048,
            "byteOffset" : 351048
        },
        {
            "buffer" : 0,
            "byteLength" : 234032,
            "byteOffset" : 702096
        },
        {
            "buffer" : 0,
            "byteLength" : 234032,
            "byteOffset" : 936128
        },
        {
            "buffer" : 0,
            "byteLength" : 331776,
            "byteOffset" : 1170160
        },
        {
            "buffer" : 0,
            "byteLength" : 1584,
            "byteOffset" : 1501936
        },
        {
            "buffer" : 0,
            "byteLength" : 1584,
            "byteOffset" : 1503520
        },
        {
            "buffer" : 0,
            "byteLength" : 1056,
            "byteOffset" : 1505104
        },
        {
            "buffer" : 0,
            "byteLength" : 1056,
            "byteOffset" : 1506160
        },
        {
            "buffer" : 0,
            "byteLength" : 984,
            "byteOffset" : 1507216
        },
        {
            "buffer" : 0,
            "byteLength" : 1584,
            "byteOffset" : 1508200
        },
        {
            "buffer" : 0,
            "byteLength" : 1584,
            "byteOffset" : 1509784
        },
        {
            "buffer" : 0,
            "byteLength" : 1056,
            "byteOffset" : 1511368
        },
        {
            "buffer" : 0,
            "byteLength" : 1056,
            "byteOffset" : 1512424
        },
        {
            "buffer" : 0,
            "byteLength" : 1584,
            "byteOffset" : 1513480
        },
        {
            "buffer" : 0,
            "byteLength" : 1584,
            "byteOffset" : 1515064
        },
        {
            "buffer" : 0,
            "byteLength" : 1056,
            "byteOffset" : 1516648
        },
        {
            "buffer" : 0,
            "byteLength" : 1056,
            "byteOffset" : 1517704
        },
        {
            "buffer" : 0,
            "byteLength" : 1584,
            "byteOffset" : 1518760
        },
        {
            "buffer" : 0,
            "byteLength" : 1584,
            "byteOffset" : 1520344
        },
        {
            "buffer" : 0,
            "byteLength" : 1056,
            "byteOffset" : 1521928
        },
        {
            "buffer" : 0,
            "byteLength" : 1056,
            "byteOffset" : 1522984
        },
        {
            "buffer" : 0,
            "byteLength" : 1584,
            "byteOffset" : 1524040
        },
        {
            "buffer" : 0,
            "byteLength" : 1584,
            "byteOffset" : 1525624
        },
        {
            "buffer" : 0,
            "byteLength" : 1056,
            "byteOffset" : 1527208
        },
        {
            "buffer" : 0,
            "byteLength" : 1056,
            "byteOffset" : 1528264
        }
    ],
    "buffers" : [
        {
            "byteLength" : 1529320,
            "uri" : "data:application/octet-stream;base64,"
        }
    ]
}
