{
    "asset" : {
        "generator" : "Khronos glTF Blender I/O v1.5.17",
        "version" : "2.0"
    },
    "scene" : 0,
    "scenes" : [
        {
            "name" : "Scene",
            "nodes" : [
                0,
                1,
                2,
                3,
                4
            ]
        }
    ],
    "nodes" : [
        {
            "mesh" : 0,
            "name" : "Cube.001",
            "scale" : [
                1.973222017288208,
                1.973222017288208,
                1.973222017288208
            ],
            "translation" : [
                1.748411774635315,
                -2.378993511199951,
                0
            ]
        },
        {
            "mesh" : 1,
            "name" : "Cube.002",
            "rotation" : [
                0,
                -0.50895756483078,
                0,
                0.8607917428016663
            ],
            "scale" : [
                3.654111623764038,
                3.654111385345459,
                3.654111623764038
            ],
            "translation" : [
                3.1600582599639893,
                -4.431479454040527,
                0
            ]
        },
        {
            "mesh" : 2,
            "name" : "Cube.003",
            "scale" : [
                1.5590447187423706,
                1.5590447187423706,
                1.5590447187423706
            ],
            "translation" : [
                4.042678356170654,
                0.5126559734344482,
                0
            ]
        },
        {
            "mesh" : 3,
            "name" : "Cube.004",
            "scale" : [
                1.9516441822052002,
                1.9516441822052002,
                1.9516441822052002
            ],
            "translation" : [
                3.133171319961548,
                1.2896337509155273,
                0.8040002584457397
            ]
        },
        {
            "mesh" : 4,
            "name" : "Cube.005",
            "rotation" : [
                0,
                -0.9157922863960266,
                0,
                0.4016522169113159
            ],
            "scale" : [
                12.844415664672852,
                12.844414710998535,
                12.844415664672852
            ],
            "translation" : [
                7.053174018859863,
                -20.759807586669922,
                -5.526010513305664
            ]
        }
    ],
    "materials" : [
        {
            "doubleSided" : true,
            "name" : "Grass",
            "pbrMetallicRoughness" : {}
        },
        {
            "doubleSided" : true,
            "name" : "Dirt",
            "pbrMetallicRoughness" : {}
        }
    ],
    "meshes" : [
        {
            "name" : "Cube.001",
            "primitives" : [
                {
                    "attributes" : {
                        "POSITION" : 0,
                        "NORMAL" : 1,
                        "TEXCOORD_0" : 2
                    },
                    "indices" : 3,
                    "material" : 0
                },
                {
                    "attributes" : {
                        "POSITION" : 4,
                        "NORMAL" : 5,
                        "TEXCOORD_0" : 6
                    },
                    "indices" : 7,
                    "material" : 1
                }
            ]
        },
        {
            "name" : "Cube.002",
            "primitives" : [
                {
                    "attributes" : {
                        "POSITION" : 8,
                        "NORMAL" : 9,
                        "TEXCOORD_0" : 10
                    },
                    "indices" : 11,
                    "material" : 0
                },
                {
                    "attributes" : {
                        "POSITION" : 12,
                        "NORMAL" : 13,
                        "TEXCOORD_0" : 14
                    },
                    "indices" : 7,
                    "material" : 1
                }
            ]
        },
        {
            "name" : "Cube.003",
            "primitives" : [
                {
                    "attributes" : {
                        "POSITION" : 15,
                        "NORMAL" : 16,
                        "TEXCOORD_0" : 17
                    },
                    "indices" : 18,
                    "material" : 0
                },
                {
                    "attributes" : {
                        "POSITION" : 19,
                        "NORMAL" : 20,
                        "TEXCOORD_0" : 21
                    },
                    "indices" : 7,
                    "material" : 1
                }
            ]
        },
        {
            "name" : "Cube.004",
            "primitives" : [
                {
                    "attributes" : {
                        "POSITION" : 22,
                        "NORMAL" : 23,
                        "TEXCOORD_0" : 24
                    },
                    "indices" : 25,
                    "material" : 0
                },
                {
                    "attributes" : {
                        "POSITION" : 26,
                        "NORMAL" : 27,
                        "TEXCOORD_0" : 28
                    },
                    "indices" : 29,
                    "material" : 1
                }
            ]
        },
        {
            "name" : "Cube.005",
            "primitives" : [
                {
                    "attributes" : {
                        "POSITION" : 30,
                        "NORMAL" : 31,
                        "TEXCOORD_0" : 32
                    },
                    "indices" : 11,
                    "material" : 0
                },
                {
                    "attributes" : {
                        "POSITION" : 33,
                        "NORMAL" : 34,
                        "TEXCOORD_0" : 35
                    },
                    "indices" : 7,
                    "material" : 1
                }
            ]
        }
    ],
    "accessors" : [
        {
            "bufferView" : 0,
            "componentType" : 5126,
            "count" : 688,
            "max" : [
                1.5078588724136353,
                1.0761656761169434,
                1.5078588724136353
            ],
            "min" : [
                -1.5078588724136353,
                0.9213017821311951,
                -1.5078588724136353
            ],
            "type" : "VEC3"
        },
        {
            "bufferView" : 1,
            "componentType" : 5126,
            "count" : 688,
            "type" : "VEC3"
        },
        {
            "bufferView" : 2,
            "componentType" : 5126,
            "count" : 688,
            "type" : "VEC2"
        },
        {
            "bufferView" : 3,
            "componentType" : 5123,
            "count" : 1752,
            "type" : "SCALAR"
        },
        {
            "bufferView" : 4,
            "componentType" : 5126,
            "count" : 32,
            "max" : [
                1.6997230052947998,
                0.9213017821311951,
                1.6997230052947998
            ],
            "min" : [
                -1.6997230052947998,
                -1,
                -1.6997230052947998
            ],
            "type" : "VEC3"
        },
        {
            "bufferView" : 5,
            "componentType" : 5126,
            "count" : 32,
            "type" : "VEC3"
        },
        {
            "bufferView" : 6,
            "componentType" : 5126,
            "count" : 32,
            "type" : "VEC2"
        },
        {
            "bufferView" : 7,
            "componentType" : 5123,
            "count" : 48,
            "type" : "SCALAR"
        },
        {
            "bufferView" : 8,
            "componentType" : 5126,
            "count" : 3407,
            "max" : [
                1.5078588724136353,
                1.120084524154663,
                1.5078588724136353
            ],
            "min" : [
                -1.5078588724136353,
                0.9213017821311951,
                -1.5078588724136353
            ],
            "type" : "VEC3"
        },
        {
            "bufferView" : 9,
            "componentType" : 5126,
            "count" : 3407,
            "type" : "VEC3"
        },
        {
            "bufferView" : 10,
            "componentType" : 5126,
            "count" : 3407,
            "type" : "VEC2"
        },
        {
            "bufferView" : 11,
            "componentType" : 5123,
            "count" : 6552,
            "type" : "SCALAR"
        },
        {
            "bufferView" : 12,
            "componentType" : 5126,
            "count" : 32,
            "max" : [
                1.6997230052947998,
                0.9213017821311951,
                1.6997230052947998
            ],
            "min" : [
                -1.6997230052947998,
                -1,
                -1.6997230052947998
            ],
            "type" : "VEC3"
        },
        {
            "bufferView" : 13,
            "componentType" : 5126,
            "count" : 32,
            "type" : "VEC3"
        },
        {
            "bufferView" : 14,
            "componentType" : 5126,
            "count" : 32,
            "type" : "VEC2"
        },
        {
            "bufferView" : 15,
            "componentType" : 5126,
            "count" : 41,
            "max" : [
                1.5078588724136353,
                1,
                1.5078588724136353
            ],
            "min" : [
                -1.5078588724136353,
                0.9213017821311951,
                -1.5078588724136353
            ],
            "type" : "VEC3"
        },
        {
            "bufferView" : 16,
            "componentType" : 5126,
            "count" : 41,
            "type" : "VEC3"
        },
        {
            "bufferView" : 17,
            "componentType" : 5126,
            "count" : 41,
            "type" : "VEC2"
        },
        {
            "bufferView" : 18,
            "componentType" : 5123,
            "count" : 72,
            "type" : "SCALAR"
        },
        {
            "bufferView" : 19,
            "componentType" : 5126,
            "count" : 32,
            "max" : [
                1.6997230052947998,
                0.9213017821311951,
                1.6997230052947998
            ],
            "min" : [
                -1.6997230052947998,
                -1,
                -1.6997230052947998
            ],
            "type" : "VEC3"
        },
        {
            "bufferView" : 20,
            "componentType" : 5126,
            "count" : 32,
            "type" : "VEC3"
        },
        {
            "bufferView" : 21,
            "componentType" : 5126,
            "count" : 32,
            "type" : "VEC2"
        },
        {
            "bufferView" : 22,
            "componentType" : 5126,
            "count" : 3882,
            "max" : [
                1.5078588724136353,
                1.066970944404602,
                1.5078588724136353
            ],
            "min" : [
                -1.5078588724136353,
                0.9213017821311951,
                -1.5078588724136353
            ],
            "type" : "VEC3"
        },
        {
            "bufferView" : 23,
            "componentType" : 5126,
            "count" : 3882,
            "type" : "VEC3"
        },
        {
            "bufferView" : 24,
            "componentType" : 5126,
            "count" : 3882,
            "type" : "VEC2"
        },
        {
            "bufferView" : 25,
            "componentType" : 5123,
            "count" : 6552,
            "type" : "SCALAR"
        },
        {
            "bufferView" : 26,
            "componentType" : 5126,
            "count" : 32,
            "max" : [
                1.6997230052947998,
                0.9240003228187561,
                1.6997230052947998
            ],
            "min" : [
                -1.6997230052947998,
                -1,
                -1.6997230052947998
            ],
            "type" : "VEC3"
        },
        {
            "bufferView" : 27,
            "componentType" : 5126,
            "count" : 32,
            "type" : "VEC3"
        },
        {
            "bufferView" : 28,
            "componentType" : 5126,
            "count" : 32,
            "type" : "VEC2"
        },
        {
            "bufferView" : 29,
            "componentType" : 5123,
            "count" : 48,
            "type" : "SCALAR"
        },
        {
            "bufferView" : 30,
            "componentType" : 5126,
            "count" : 3407,
            "max" : [
                1.5078588724136353,
                1.120084524154663,
                1.5078588724136353
            ],
            "min" : [
                -1.5078588724136353,
                0.9213017821311951,
                -1.5078588724136353
            ],
            "type" : "VEC3"
        },
        {
            "bufferView" : 31,
            "componentType" : 5126,
            "count" : 3407,
            "type" : "VEC3"
        },
        {
            "bufferView" : 32,
            "componentType" : 5126,
            "count" : 3407,
            "type" : "VEC2"
        },
        {
            "bufferView" : 33,
            "componentType" : 5126,
            "count" : 32,
            "max" : [
                1.6997230052947998,
                0.9213017821311951,
                1.6997230052947998
            ],
            "min" : [
                -1.6997230052947998,
                -1,
                -1.6997230052947998
            ],
            "type" : "VEC3"
        },
        {
            "bufferView" : 34,
            "componentType" : 5126,
            "count" : 32,
            "type" : "VEC3"
        },
        {
            "bufferView" : 35,
            "componentType" : 5126,
            "count" : 32,
            "type" : "VEC2"
        }
    ],
    "bufferViews" : [
        {
            "buffer" : 0,
            "byteLength" : 8256,
            "byteOffset" : 0
        },
        {
            "buffer" : 0,
            "byteLength" : 8256,
            "byteOffset" : 8256
        },
        {
            "buffer" : 0,
            "byteLength" : 5504,
            "byteOffset" : 16512
        },
        {
            "buffer" : 0,
            "byteLength" : 3504,
            "byteOffset" : 22016
        },
        {
            "buffer" : 0,
            "byteLength" : 384,
            "byteOffset" : 25520
        },
        {
            "buffer" : 0,
            "byteLength" : 384,
            "byteOffset" : 25904
        },
        {
            "buffer" : 0,
            "byteLength" : 256,
            "byteOffset" : 26288
        },
        {
            "buffer" : 0,
            "byteLength" : 96,
            "byteOffset" : 26544
        },
        {
            "buffer" : 0,
            "byteLength" : 40884,
            "byteOffset" : 26640
        },
        {
            "buffer" : 0,
            "byteLength" : 40884,
            "byteOffset" : 67524
        },
        {
            "buffer" : 0,
            "byteLength" : 27256,
            "byteOffset" : 108408
        },
        {
            "buffer" : 0,
            "byteLength" : 13104,
            "byteOffset" : 135664
        },
        {
            "buffer" : 0,
            "byteLength" : 384,
            "byteOffset" : 148768
        },
        {
            "buffer" : 0,
            "byteLength" : 384,
            "byteOffset" : 149152
        },
        {
            "buffer" : 0,
            "byteLength" : 256,
            "byteOffset" : 149536
        },
        {
            "buffer" : 0,
            "byteLength" : 492,
            "byteOffset" : 149792
        },
        {
            "buffer" : 0,
            "byteLength" : 492,
            "byteOffset" : 150284
        },
        {
            "buffer" : 0,
            "byteLength" : 328,
            "byteOffset" : 150776
        },
        {
            "buffer" : 0,
            "byteLength" : 144,
            "byteOffset" : 151104
        },
        {
            "buffer" : 0,
            "byteLength" : 384,
            "byteOffset" : 151248
        },
        {
            "buffer" : 0,
            "byteLength" : 384,
            "byteOffset" : 151632
        },
        {
            "buffer" : 0,
            "byteLength" : 256,
            "byteOffset" : 152016
        },
        {
            "buffer" : 0,
            "byteLength" : 46584,
            "byteOffset" : 152272
        },
        {
            "buffer" : 0,
            "byteLength" : 46584,
            "byteOffset" : 198856
        },
        {
            "buffer" : 0,
            "byteLength" : 31056,
            "byteOffset" : 245440
        },
        {
            "buffer" : 0,
            "byteLength" : 13104,
            "byteOffset" : 276496
        },
        {
            "buffer" : 0,
            "byteLength" : 384,
            "byteOffset" : 289600
        },
        {
            "buffer" : 0,
            "byteLength" : 384,
            "byteOffset" : 289984
        },
        {
            "buffer" : 0,
            "byteLength" : 256,
            "byteOffset" : 290368
        },
        {
            "buffer" : 0,
            "byteLength" : 96,
            "byteOffset" : 290624
        },
        {
            "buffer" : 0,
            "byteLength" : 40884,
            "byteOffset" : 290720
        },
        {
            "buffer" : 0,
            "byteLength" : 40884,
            "byteOffset" : 331604
        },
        {
            "buffer" : 0,
            "byteLength" : 27256,
            "byteOffset" : 372488
        },
        {
            "buffer" : 0,
            "byteLength" : 384,
            "byteOffset" : 399744
        },
        {
            "buffer" : 0,
            "byteLength" : 384,
            "byteOffset" : 400128
        },
        {
            "buffer" : 0,
            "byteLength" : 256,
            "byteOffset" : 400512
        }
    ],
    "buffers" : [
        {
            "byteLength" : 400768,
            "uri" : "data:application/octet-stream;base64,"
        }
    ]
}
