{
    "asset" : {
        "generator" : "Khronos glTF Blender I/O v1.5.17",
        "version" : "2.0"
    },
    "scene" : 0,
    "scenes" : [
        {
            "name" : "Scene",
            "nodes" : [
                0
            ]
        }
    ],
    "nodes" : [
        {
            "mesh" : 0,
            "name" : "Plane"
        }
    ],
    "materials" : [
        {
            "doubleSided" : true,
            "name" : "Terrain",
            "pbrMetallicRoughness" : {}
        }
    ],
    "meshes" : [
        {
            "name" : "Plane",
            "primitives" : [
                {
                    "attributes" : {
                        "POSITION" : 0,
                        "NORMAL" : 1,
                        "TEXCOORD_0" : 2
                    },
                    "indices" : 3,
                    "material" : 0
                }
            ]
        }
    ],
    "accessors" : [
        {
            "bufferView" : 0,
            "componentType" : 5126,
            "count" : 62537,
            "max" : [
                100,
                12.837987899780273,
                100
            ],
            "min" : [
                -100,
                -7.413459300994873,
                -100
            ],
            "type" : "VEC3"
        },
        {
            "bufferView" : 1,
            "componentType" : 5126,
            "count" : 62537,
            "type" : "VEC3"
        },
        {
            "bufferView" : 2,
            "componentType" : 5126,
            "count" : 62537,
            "type" : "VEC2"
        },
        {
            "bufferView" : 3,
            "componentType" : 5123,
            "count" : 98304,
            "type" : "SCALAR"
        }
    ],
    "bufferViews" : [
        {
            "buffer" : 0,
            "byteLength" : 750444,
            "byteOffset" : 0
        },
        {
            "buffer" : 0,
            "byteLength" : 750444,
            "byteOffset" : 750444
        },
        {
            "buffer" : 0,
            "byteLength" : 500296,
            "byteOffset" : 1500888
        },
        {
            "buffer" : 0,
            "byteLength" : 196608,
            "byteOffset" : 2001184
        }
    ],
    "buffers" : [
        {
            "byteLength" : 2197792,
            "uri" : "data:application/octet-stream;base64,"
        }
    ]
}
