{
    "asset" : {
        "generator" : "Khronos glTF Blender I/O v1.5.17",
        "version" : "2.0"
    },
    "scene" : 0,
    "scenes" : [
        {
            "name" : "Scene",
            "nodes" : [
                0,
                1
            ]
        }
    ],
    "nodes" : [
        {
            "mesh" : 0,
            "name" : "Sphere",
            "scale" : [
                6.727419376373291,
                4.013167858123779,
                6.727419376373291
            ],
            "translation" : [
                0,
                6.7123308181762695,
                0
            ]
        },
        {
            "mesh" : 1,
            "name" : "Cone",
            "scale" : [
                0.8495742678642273,
                3.8384480476379395,
                0.8495742678642273
            ]
        }
    ],
    "materials" : [
        {
            "doubleSided" : true,
            "name" : "Material",
            "pbrMetallicRoughness" : {}
        }
    ],
    "meshes" : [
        {
            "name" : "Sphere",
            "primitives" : [
                {
                    "attributes" : {
                        "POSITION" : 0,
                        "NORMAL" : 1,
                        "TEXCOORD_0" : 2
                    },
                    "indices" : 3,
                    "material" : 0
                }
            ]
        },
        {
            "name" : "Cone",
            "primitives" : [
                {
                    "attributes" : {
                        "POSITION" : 4,
                        "NORMAL" : 5,
                        "TEXCOORD_0" : 6
                    },
                    "indices" : 7,
                    "material" : 0
                }
            ]
        }
    ],
    "accessors" : [
        {
            "bufferView" : 0,
            "componentType" : 5126,
            "count" : 40,
            "max" : [
                0.8516535758972168,
                1.548719048500061,
                0.8296145796775818
            ],
            "min" : [
                -0.8225761651992798,
                -1.5478190183639526,
                -0.84461510181427
            ],
            "type" : "VEC3"
        },
        {
            "bufferView" : 1,
            "componentType" : 5126,
            "count" : 40,
            "type" : "VEC3"
        },
        {
            "bufferView" : 2,
            "componentType" : 5126,
            "count" : 40,
            "type" : "VEC2"
        },
        {
            "bufferView" : 3,
            "componentType" : 5123,
            "count" : 48,
            "type" : "SCALAR"
        },
        {
            "bufferView" : 4,
            "componentType" : 5126,
            "count" : 9,
            "max" : [
                0.8660253882408142,
                2.769164562225342,
                0.5000000596046448
            ],
            "min" : [
                -0.866025447845459,
                0,
                -1
            ],
            "type" : "VEC3"
        },
        {
            "bufferView" : 5,
            "componentType" : 5126,
            "count" : 9,
            "type" : "VEC3"
        },
        {
            "bufferView" : 6,
            "componentType" : 5126,
            "count" : 9,
            "type" : "VEC2"
        },
        {
            "bufferView" : 7,
            "componentType" : 5123,
            "count" : 9,
            "type" : "SCALAR"
        }
    ],
    "bufferViews" : [
        {
            "buffer" : 0,
            "byteLength" : 480,
            "byteOffset" : 0
        },
        {
            "buffer" : 0,
            "byteLength" : 480,
            "byteOffset" : 480
        },
        {
            "buffer" : 0,
            "byteLength" : 320,
            "byteOffset" : 960
        },
        {
            "buffer" : 0,
            "byteLength" : 96,
            "byteOffset" : 1280
        },
        {
            "buffer" : 0,
            "byteLength" : 108,
            "byteOffset" : 1376
        },
        {
            "buffer" : 0,
            "byteLength" : 108,
            "byteOffset" : 1484
        },
        {
            "buffer" : 0,
            "byteLength" : 72,
            "byteOffset" : 1592
        },
        {
            "buffer" : 0,
            "byteLength" : 18,
            "byteOffset" : 1664
        }
    ],
    "buffers" : [
        {
            "byteLength" : 1684,
            "uri" : "data:application/octet-stream;base64,"
        }
    ]
}
